<?xml version="1.0" encoding="utf-8"?>
<!-- Generator: Adobe Illustrator 18.1.1, SVG Export Plug-In . SVG Version: 6.00 Build 0)  -->
<svg version="1.1" id="Layer_1" xmlns="http://www.w3.org/2000/svg" xmlns:xlink="http://www.w3.org/1999/xlink" x="0px" y="0px"
	 viewBox="0 0 307.6 34" enable-background="new 0 0 307.6 34" xml:space="preserve">
<circle cx="16.8" cy="4.4" r="4.4"/>
<circle cx="16.8" cy="17" r="4.4"/>
<circle cx="4.4" cy="17" r="4.4"/>
<circle cx="29.6" cy="17" r="4.4"/>
<circle cx="16.8" cy="29.6" r="4.4"/>
<g>
	<path d="M51.5,13.1l-6-9.2c-0.1-0.1-0.1-0.2-0.2-0.4c-0.1-0.1-0.1-0.2-0.1-0.3C45.1,3.1,45.1,3,45,2.8V13h-1.5V1.2h1.9l5.9,9
		c0.1,0.1,0.1,0.2,0.2,0.3c0.1,0.2,0.1,0.2,0.2,0.5c0,0,0,0.1,0.1,0.2v-10h1.5v11.9H51.5z"/>
	<path d="M64.1,13l-1.2-3.5h-4.8L56.9,13h-1.6l4.4-12.2h1.6L65.7,13H64.1z M60.5,2.8l-1.9,5.4h3.9L60.5,2.8z"/>
	<path d="M73.7,3.2c-0.6-0.4-0.9-0.5-1.2-0.6c-0.4-0.1-1.2-0.3-1.6-0.3c-1.3,0-2.3,0.7-2.3,1.7c0,0.9,0.5,1.3,2.9,2.6
		C72.3,7,73,7.4,73.4,7.8c0.6,0.5,0.9,1.3,0.9,2.1c0,2-1.5,3.3-3.9,3.3c-0.8,0-1.6-0.1-2.2-0.4c-0.4-0.2-0.8-0.4-1.5-0.9l0.8-1.2
		c0.7,0.4,0.9,0.6,1.4,0.8c0.5,0.2,1.1,0.3,1.7,0.3c1.4,0,2.2-0.7,2.2-1.8c0-0.3-0.1-0.6-0.2-0.8c-0.2-0.4-0.5-0.7-1-1
		c-0.2-0.1-0.9-0.4-2-1.1c-1.8-0.9-2.5-1.9-2.5-3.1C67.1,2.2,68.6,1,71,1c0.7,0,1.4,0.1,2,0.3c0.5,0.2,0.8,0.3,1.4,0.7L73.7,3.2z"/>
	<path d="M77.9,15.5c-0.4,0.7-0.7,1-1.5,1.7l-0.9-0.8c0.8-0.9,1.1-1.2,1.3-1.7c0.3-0.7,0.5-1.6,0.5-2.7V1.2h1.5v12.2
		C78.5,14.4,78.4,14.7,77.9,15.5z"/>
	<path d="M87.6,13.2c-3.4,0-5.9-2.6-5.9-6.1c0-3.5,2.5-6.1,5.9-6.1c3.4,0,5.9,2.6,5.9,6.1C93.5,10.7,91,13.2,87.6,13.2z M87.6,2.3
		c-2.4,0-4.3,2.2-4.3,4.8c0,2.7,2,4.9,4.3,4.9c2.4,0,4.3-2.2,4.3-4.9C91.9,4.5,90,2.3,87.6,2.3z"/>
	<path d="M104.4,13.1l-6-9.2c-0.1-0.1-0.1-0.2-0.2-0.4C98.1,3.4,98,3.3,98,3.2c-0.1-0.1-0.1-0.2-0.2-0.4V13h-1.5V1.2h1.9l5.9,9
		c0.1,0.1,0.1,0.2,0.2,0.3c0.1,0.2,0.1,0.2,0.2,0.5c0,0,0,0.1,0.1,0.2v-10h1.5v11.9H104.4z"/>
	<path d="M116.9,13l-1.2-3.5h-4.8l-1.2,3.5h-1.6l4.4-12.2h1.6l4.4,12.2H116.9z M113.3,2.8l-1.9,5.4h3.9L113.3,2.8z"/>
	<path d="M120.6,13V1.2h1.5v10.6h5.3V13H120.6z"/>
	<path d="M131.3,2.4V13h-1.5V2.4h-3.9V1.2h9.4v1.2H131.3z"/>
	<path d="M147.8,3.2c-0.6-0.4-0.9-0.5-1.2-0.6c-0.4-0.1-1.2-0.3-1.6-0.3c-1.3,0-2.3,0.7-2.3,1.7c0,0.9,0.5,1.3,2.9,2.6
		c0.8,0.4,1.4,0.8,1.9,1.2c0.6,0.5,0.9,1.3,0.9,2.1c0,2-1.5,3.3-3.9,3.3c-0.8,0-1.6-0.1-2.2-0.4c-0.4-0.2-0.8-0.4-1.5-0.9l0.8-1.2
		c0.7,0.4,0.9,0.6,1.4,0.8c0.5,0.2,1.1,0.3,1.7,0.3c1.4,0,2.2-0.7,2.2-1.8c0-0.3-0.1-0.6-0.2-0.8c-0.2-0.4-0.5-0.7-1-1
		c-0.2-0.1-0.9-0.4-2-1.1c-1.8-0.9-2.5-1.9-2.5-3.1c0-1.9,1.6-3.1,3.9-3.1c0.7,0,1.4,0.1,2,0.3c0.5,0.2,0.8,0.3,1.4,0.7L147.8,3.2z"
		/>
	<path d="M151.4,13V1.2h6.6v1.2h-5.2v3.9h4.3v1.2h-4.3v4.2h5.3V13H151.4z"/>
	<path d="M167.3,13l-3.3-5.1h-1.6V13H161V1.2h3.6c1.4,0,2.1,0.2,2.8,0.9c0.6,0.6,0.9,1.4,0.9,2.3c0,0.9-0.4,1.8-1,2.5
		c-0.5,0.5-0.9,0.7-1.8,0.9L169,13H167.3z M166.1,2.8c-0.4-0.3-0.7-0.3-1.7-0.3h-1.9v4.3h1.9c1.6,0,2.4-0.8,2.4-2.3
		C166.8,3.6,166.6,3.1,166.1,2.8z"/>
	<path d="M175.2,13.3h-0.9l-4.7-12.1h1.6l3.5,9.2c0.1,0.2,0.1,0.3,0.1,0.6c0-0.2,0-0.4,0.1-0.6l3.4-9.2h1.5L175.2,13.3z"/>
	<path d="M181.9,13V1.2h1.5V13H181.9z"/>
	<path d="M195,3.2c-0.9-0.6-1.8-0.9-2.9-0.9c-2.5,0-4.3,1.9-4.3,4.6c0,3,1.8,4.9,4.6,4.9c1,0,1.8-0.2,2.7-0.6l0.4,1.1
		c-0.7,0.3-1,0.4-1.6,0.6c-0.6,0.1-1.1,0.2-1.6,0.2c-3.6,0-6.1-2.6-6.1-6.2c0-3.5,2.6-6.1,5.9-6.1c0.8,0,1.5,0.1,2.2,0.4
		c0.5,0.2,0.8,0.3,1.4,0.7L195,3.2z"/>
	<path d="M198.1,13V1.2h6.6v1.2h-5.2v3.9h4.3v1.2h-4.3v4.2h5.3V13H198.1z"/>
	<path d="M218.1,13V2.7c-0.1,0.6-0.2,0.8-0.4,1.5l-3.5,8.9h-1.3l-3.3-8.7c-0.3-0.7-0.3-0.8-0.5-1.6V13h-1.3V1.2h2l3.6,9.5
		c0.2,0.5,0.2,0.6,0.2,0.9c0.1-0.5,0.1-0.6,0.2-0.9l3.7-9.5h2V13H218.1z"/>
	<path d="M223.5,13V1.2h1.5V13H223.5z"/>
	<path d="M228.9,13V1.2h1.5v10.6h5.3V13H228.9z"/>
	<path d="M238.3,15.5c-0.4,0.7-0.7,1-1.5,1.7l-0.9-0.8c0.8-0.9,1.1-1.2,1.3-1.7c0.3-0.7,0.5-1.6,0.5-2.7V1.2h1.5v12.2
		C238.9,14.4,238.8,14.7,238.3,15.5z"/>
	<path d="M248,13.2c-1.5,0-2.2-0.1-3.6-1.2l-0.2-0.2l-1.8,2l-0.7-0.6l1.8-2.1c-1.1-1.6-1.5-2.5-1.5-4c0-3.7,2.5-6.2,6-6.2
		c1.4,0,2,0.1,3.4,1l0.1,0.1l1.7-1.9l0.7,0.6l-1.6,1.9c1.1,1.2,1.8,2.7,1.8,4.5C254,10.7,251.5,13.2,248,13.2z M248.1,2.2
		c-2.3,0-4.3,2.2-4.3,4.8c0,1,0.4,2.2,0.9,2.9l5.9-6.8C249.9,2.6,248.9,2.2,248.1,2.2z M251.2,3.8l-5.9,6.9c1,0.9,1.8,1.3,2.8,1.3
		c2.3,0,4.3-2.2,4.3-4.8C252.4,5.9,251.9,4.6,251.2,3.8z"/>
	<path d="M262.8,2.4v4h4.3v1.3h-4.3V13h-1.5V1.2h6.6v1.2H262.8z"/>
	<path d="M274.9,13.2c-3.4,0-5.9-2.6-5.9-6.1c0-3.5,2.5-6.1,5.9-6.1s5.9,2.6,5.9,6.1C280.8,10.7,278.3,13.2,274.9,13.2z M274.9,2.3
		c-2.4,0-4.3,2.2-4.3,4.8c0,2.7,2,4.9,4.3,4.9c2.4,0,4.3-2.2,4.3-4.9C279.2,4.5,277.2,2.3,274.9,2.3z"/>
	<path d="M289.2,13L286,7.9h-1.6V13h-1.5V1.2h3.6c1.4,0,2.1,0.2,2.8,0.9c0.6,0.6,0.9,1.4,0.9,2.3c0,0.9-0.4,1.8-1,2.5
		c-0.5,0.5-0.9,0.7-1.8,0.9l3.5,5.3H289.2z M288,2.8c-0.4-0.3-0.7-0.3-1.7-0.3h-1.9v4.3h1.9c1.6,0,2.4-0.8,2.4-2.3
		C288.7,3.6,288.5,3.1,288,2.8z"/>
	<path d="M53.4,32.6v-8.7c-0.1,0.6-0.1,0.7-0.4,1.7l-2.7,7h-2l-2.5-6.9c-0.3-0.7-0.3-0.9-0.4-1.9v8.7h-2V20.8H46l3.2,8.4
		c0.1,0.3,0.2,0.5,0.2,0.9c0.1-0.6,0.1-0.6,0.2-0.9l3.3-8.4h2.7v11.8H53.4z"/>
	<path d="M58.9,32.6V20.8h7.2v1.9h-4.9v2.9h4v1.9h-4v3.2h5.2v1.9H58.9z"/>
	<path d="M77.6,30.8c-1.1,1.2-2.7,1.7-4.8,1.7h-4.4V20.8h4.4c2.2,0,3.6,0.5,4.8,1.7c1,1.1,1.6,2.6,1.6,4.1
		C79.2,28.2,78.6,29.7,77.6,30.8z M75.4,23.4c-0.6-0.5-1.5-0.7-2.8-0.7h-1.8v7.8h1.8c2.7,0,4.2-1.4,4.2-3.9
		C76.8,25.3,76.3,24.1,75.4,23.4z"/>
	<path d="M81.2,32.6V20.8h2.3v11.8H81.2z"/>
	<path d="M93.2,23.6c-1.3-0.6-2.3-0.8-3.1-0.8c-1.1,0-1.7,0.4-1.7,1.1c0,0.5,0.3,0.8,1.1,1.3c1.8,1,3,1.7,3.5,2.3
		c0.5,0.5,0.8,1.3,0.8,2.1c0,2.1-1.5,3.4-4.2,3.4c-0.4,0-0.7,0-1.1-0.1c-0.8-0.1-1.2-0.3-2.5-0.8c-0.2-0.1-0.4-0.2-0.8-0.4l0.9-2.1
		c0.9,0.5,1.2,0.6,1.7,0.8c0.6,0.2,1.2,0.3,1.7,0.3c1,0,1.7-0.5,1.7-1.2c0-0.5-0.3-0.8-1-1.3l-1.8-1c-2.1-1.2-2.7-2-2.7-3.3
		c0-0.6,0.2-1.2,0.5-1.6c0.2-0.3,0.5-0.6,0.9-0.9c0.9-0.6,1.6-0.8,3-0.8c0.8,0,1.5,0.1,2.2,0.3c0.6,0.2,0.9,0.3,1.7,0.7L93.2,23.6z"
		/>
	<path d="M96.2,32.6V20.8h2.3v11.8H96.2z"/>
	<path d="M109.5,32.7l-5.1-7.6c0-0.1-0.1-0.2-0.3-0.5c-0.1-0.1-0.1-0.2-0.1-0.3c-0.1-0.1-0.1-0.2-0.2-0.4v8.7h-2.1V20.8h2.6l5,7.8
		c0,0,0.1,0.1,0.1,0.3s0.1,0.2,0.1,0.2l0.1,0.3l0.1,0.2v-8.8h2.1v11.9H109.5z"/>
	<path d="M121.7,23.6c-1.3-0.6-2.3-0.8-3.1-0.8c-1.1,0-1.7,0.4-1.7,1.1c0,0.5,0.3,0.8,1.1,1.3c1.8,1,3,1.7,3.5,2.3
		c0.5,0.5,0.8,1.3,0.8,2.1c0,2.1-1.5,3.4-4.2,3.4c-0.4,0-0.7,0-1.1-0.1c-0.8-0.1-1.2-0.3-2.5-0.8c-0.2-0.1-0.4-0.2-0.8-0.4l0.9-2.1
		c0.9,0.5,1.2,0.6,1.7,0.8c0.6,0.2,1.2,0.3,1.7,0.3c1,0,1.7-0.5,1.7-1.2c0-0.5-0.3-0.8-1-1.3l-1.8-1c-2.1-1.2-2.7-2-2.7-3.3
		c0-0.6,0.2-1.2,0.5-1.6c0.2-0.3,0.5-0.6,0.9-0.9c0.9-0.6,1.6-0.8,3-0.8c0.8,0,1.5,0.1,2.2,0.3c0.6,0.2,0.9,0.3,1.7,0.7L121.7,23.6z
		"/>
	<path d="M130.8,32.6l-3.9-5.6v5.6h-2.3V20.8h2.3v5.5l3.7-5.5h2.6l-4.1,5.8l4.3,6.1H130.8z"/>
	<path d="M135,32.6V20.8h7.2v1.9h-4.9v2.9h4v1.9h-4v3.2h5.2v1.9H135z"/>
	<path d="M155.2,32.6l-3.9-5.6v5.6H149V20.8h2.3v5.5l3.7-5.5h2.6l-4.1,5.8l4.3,6.1H155.2z"/>
	<path d="M163.7,32.9h-1.6l-4.4-12.2h2.5l2.7,8l0,0.2l0,0.2l0.1,0.2l0-0.1c0-0.2,0-0.2,0.1-0.3l0.1-0.1l2.6-8h2.4L163.7,32.9z"/>
	<path d="M175.5,32.6l-0.9-2.9h-4l-1,2.9h-2.4l4.3-11.8h2l4.3,11.8H175.5z M172.6,23.5l-1.4,4.3h2.7L172.6,23.5z"/>
	<path d="M179.5,32.6V20.8h2.3v9.9h4.8v1.9H179.5z"/>
	<path d="M188.3,32.6V20.8h2.3v11.8H188.3z"/>
	<path d="M198.1,22.7v9.9h-2.3v-9.9h-3.5v-1.9h9.4v1.9H198.1z"/>
	<path d="M203.4,32.6V20.8h7.2v1.9h-4.9v2.9h4v1.9h-4v3.2h5.2v1.9H203.4z"/>
	<path d="M217.4,22.7v9.9h-2.3v-9.9h-3.5v-1.9h9.4v1.9H217.4z"/>
	<path d="M229.3,23.6c-1.3-0.6-2.3-0.8-3.1-0.8c-1.1,0-1.7,0.4-1.7,1.1c0,0.5,0.3,0.8,1.1,1.3c1.8,1,3,1.7,3.5,2.3
		c0.5,0.5,0.8,1.3,0.8,2.1c0,2.1-1.5,3.4-4.2,3.4c-0.4,0-0.7,0-1.1-0.1c-0.8-0.1-1.2-0.3-2.5-0.8c-0.2-0.1-0.4-0.2-0.8-0.4l0.9-2.1
		c0.9,0.5,1.2,0.6,1.7,0.8c0.6,0.2,1.2,0.3,1.7,0.3c1,0,1.7-0.5,1.7-1.2c0-0.5-0.3-0.8-1-1.3l-1.8-1c-2.1-1.2-2.7-2-2.7-3.3
		c0-0.6,0.2-1.2,0.5-1.6c0.2-0.3,0.5-0.6,0.9-0.9c0.9-0.6,1.6-0.8,3-0.8c0.8,0,1.5,0.1,2.2,0.3c0.6,0.2,0.9,0.3,1.7,0.7L229.3,23.6z
		"/>
	<path d="M238.4,32.6l-2.7-4.7h-1.1v4.7h-2.3V20.8h3.9c1.7,0,2.5,0.2,3.2,0.9c0.6,0.6,1,1.5,1,2.6c0,0.9-0.2,1.6-0.6,2.2
		c-0.4,0.6-0.9,0.8-1.8,1.1l2.9,5.1H238.4z M236,22.7h-1.5v3.3h1.5c1.4,0,2.1-0.5,2.1-1.7C238.1,23.1,237.5,22.7,236,22.7z"/>
	<path d="M242.8,32.6V20.8h7.2v1.9H245v2.9h4v1.9h-4v3.2h5.2v1.9H242.8z"/>
	<path d="M261,32.4c-1.3,0.3-2,0.4-3,0.4c-3.9,0-6.6-2.5-6.6-6.2c0-1.8,0.7-3.3,2-4.5c1.2-1.1,2.6-1.6,4.6-1.6
		c0.9,0,1.7,0.1,2.5,0.3c0.6,0.1,0.9,0.3,1.8,0.6l-0.5,1.9c-0.4-0.2-0.8-0.3-1-0.3c-0.8-0.3-1.7-0.4-2.4-0.4c-2.7,0-4.5,1.6-4.5,4
		c0,2.4,2,4.3,4.7,4.3c0.5,0,0.8-0.1,1.5-0.3v-3.3h2.3v4.8C261.6,32.3,261.2,32.3,261,32.4z"/>
	<path d="M265,32.6V20.8h2.3v11.8H265z"/>
	<path d="M277,23.6c-1.3-0.6-2.3-0.8-3.1-0.8c-1.1,0-1.7,0.4-1.7,1.1c0,0.5,0.3,0.8,1.1,1.3c1.8,1,3,1.7,3.5,2.3
		c0.5,0.5,0.8,1.3,0.8,2.1c0,2.1-1.5,3.4-4.2,3.4c-0.4,0-0.7,0-1.1-0.1c-0.8-0.1-1.2-0.3-2.5-0.8c-0.2-0.1-0.4-0.2-0.8-0.4l0.9-2.1
		c0.9,0.5,1.2,0.6,1.7,0.8c0.6,0.2,1.2,0.3,1.7,0.3c1,0,1.7-0.5,1.7-1.2c0-0.5-0.3-0.8-1-1.3l-1.8-1c-2.1-1.2-2.7-2-2.7-3.3
		c0-0.6,0.2-1.2,0.5-1.6c0.2-0.3,0.5-0.6,0.9-0.9c0.9-0.6,1.6-0.8,3-0.8c0.8,0,1.5,0.1,2.2,0.3c0.6,0.2,0.9,0.3,1.7,0.7L277,23.6z"
		/>
	<path d="M284.4,22.7v9.9h-2.3v-9.9h-3.5v-1.9h9.4v1.9H284.4z"/>
	<path d="M295.8,32.6l-2.7-4.7h-1.1v4.7h-2.3V20.8h3.9c1.7,0,2.5,0.2,3.2,0.9c0.6,0.6,1,1.5,1,2.6c0,0.9-0.2,1.6-0.6,2.2
		c-0.4,0.6-0.9,0.8-1.8,1.1l2.9,5.1H295.8z M293.4,22.7h-1.5v3.3h1.5c1.4,0,2.1-0.5,2.1-1.7C295.5,23.1,294.9,22.7,293.4,22.7z"/>
	<path d="M300.1,32.6V20.8h7.2v1.9h-4.9v2.9h4v1.9h-4v3.2h5.2v1.9H300.1z"/>
</g>
</svg>
